PathFileType	4	(X/Y/Z)	C:/Users/beibeiliu/ov580/test_trc/capture2\sequence.16_training_dense_right.trc
DataRate	CameraRate	NumFrames	NumMarkers	Units	OrigDataRate	OrigDataStartFrame	OrigNumFrames
120	120	10	19	mm	120	351	400
Frame#	Time	ThumbCMC			ThumbMCP			ThumbIP			ThumbTip			IndexMCP			IndexPIP			IndexTip			MiddleMCP			MiddlePIP			MiddleTip			RingMCP			RingPIP			RingTip			PinkyMCP			PinkyPIP			PinkyTip			BackHand1			BackHand2			BackHand3	
		X0	Y0	Z0	X1	Y1	Z1	X2	Y2	Z2	X3	Y3	Z3	X4	Y4	Z4	X5	Y5	Z5	X6	Y6	Z6	X7	Y7	Z7	X8	Y8	Z8	X9	Y9	Z9	X10	Y10	Z10	X11	Y11	Z11	X12	Y12	Z12	X13	Y13	Z13	X14	Y14	Z14	X15	Y15	Z15	X16	Y16	Z16	X17	Y17	Z17	X18	Y18	Z18	
350	2.91667	229.207	72.6715	-46.3033	223.094	84.8957	-68.3296	221.84	91.858	-92.4269	223.459	101.74	-113.589	220.448	40.6726	-112.815	213.781	35.405	-135.303	205.654	22.2405	-158.192	189.472	31.7086	-106.733	162.902	47.3601	-101.59	165.383	56.7862	-65.1885	180.225	21.2106	-93.4824	156.081	40.5906	-77.9688	175.274	52.6634	-54.4316	173.457	10.9413	-80.2259	156.569	28.2471	-65.5835	177.733	43.4185	-43.545	221.498	6.76775	-57.7989	229.446	12.1306	-24.8183	238.927	36.6667	-51.0136	
351	2.925	231.499	70.72	-44.1652	226.332	82.038	-66.5262	230.692	91.9192	-92.036	230.143	93.8051	-115.981	229.351	34.7681	-109.051	223.354	26.4916	-137.139	219.977	18.6936	-156.028	201.554	25.6425	-106.393	172.614	42.0099	-107.194	171.791	56.1249	-72.2814	188.482	16.587	-95.3342	164.434	36.5921	-83.7983	175.439	46.1119	-56.0951	184.086	5.26505	-80.736	164.998	27.3962	-70.9516	182.976	40.8918	-45.3379	226.77	8.15208	-57.7379	234.654	13.4655	-23.4639	242.75	35.9174	-51.2792	
352	2.93333	238.853	70.0503	-45.5222	234.822	81.1938	-66.4424	241.089	86.3615	-94.1447	242.852	91.896	-110.102	245.675	33.671	-107.298	243.101	23.5026	-130.53	241.014	11.9115	-153.309	212.43	23.655	-109.985	186.103	38.8089	-110.864	183.555	55.6833	-76.2309	201.679	11.8867	-96.1568	177.06	30.3954	-91.706	187.498	47.7013	-60.8908	195.253	0.192789	-82.7285	175.479	23.6802	-78.4561	189.783	39.6762	-53.261	234.45	2.29431	-50.7809	235.958	12.2409	-19.6354	250.631	37.5114	-48.4603	
353	2.94167	240.953	71.344	-40.5427	241.568	78.5132	-69.4829	247.667	83.8106	-93.1805	254.434	93.0834	-111.611	256.227	29.3967	-102.942	259.881	24.6926	-128.069	258.762	8.73292	-150.919	225.823	20.7327	-107.366	195.977	30.8621	-113.139	189.488	47.6907	-77.8502	210.086	9.52927	-98.7032	186.449	31.7835	-92.044	191.988	43.1856	-65.0466	203.899	-1.65739	-84.7499	185.325	19.5346	-83.6092	195.846	36.7205	-56.7816	241.49	4.22184	-47.6996	242.406	13.426	-22.4966	253.552	35.8451	-39.4977	
354	2.95	242.672	73.278	-40.1103	241.783	81.9054	-64.2608	249.599	86.3211	-88.7545	256.896	95.7609	-106.975	266.309	33.7608	-103.102	268.94	25.3774	-126.645	273.764	14.5651	-145.615	232.96	23.6995	-110.092	204.125	32.4943	-113.546	196.039	49.923	-77.9031	220.855	11.2619	-97.2115	191.722	28.0436	-92.9771	197.374	42.7081	-62.3296	210.756	0.503756	-88.1314	189.363	18.1544	-83.074	199.508	33.9272	-56.4104	244.885	4.03491	-47.0657	243.596	16.6926	-20.5408	256.314	37.0134	-36.8293	
355	2.95833	240.648	74.9638	-36.3682	243.069	84.1018	-66.3535	249.564	90.4625	-84.9965	256.939	95.8123	-108.06	269.184	35.4795	-98.3205	278.735	32.3805	-124.386	284.436	19.0501	-144.501	240.144	23.3787	-104.65	209.574	33.119	-113.607	199.489	50.0121	-80.5551	223.814	13.5262	-98.498	198.434	31.5266	-93.8668	202.06	42.9286	-61.2636	217.615	2.50804	-88.305	195.704	16.7121	-83.4397	200.966	33.6435	-56.1554	251.071	6.89579	-48.6	245.395	16.4898	-17.9745	258.68	41.1769	-37.0357	
356	2.96667	239.131	76.9837	-36.6071	239.818	85.6369	-63.6089	246.656	91.8288	-84.7775	253.482	100.897	-103.76	274.45	42.1895	-95.8392	280.004	37.347	-116.259	290.702	28.5249	-137.627	243.553	27.3127	-107.149	213.337	36.6167	-111.361	203.743	48.8505	-78.0699	231.359	15.8027	-97.1537	202.434	28.5901	-92.0213	201.723	39.505	-62.8555	224.15	-0.643395	-84.5963	201.062	17.1246	-82.4483	207.869	33.2028	-52.1909	255.81	9.96278	-43.5579	248.088	16.2405	-14.9421	259.92	48.0539	-36.2581	
357	2.975	236.87	77.6804	-37.7659	234.112	87.7723	-58.7707	245.72	98.5269	-84.7696	251.551	101.14	-105.431	276.547	52.0141	-92.8989	287.051	47.1965	-117.81	296.766	36.9324	-132.85	250.27	35.4742	-101.977	217.507	36.8177	-110.476	203.764	44.9392	-77.2777	237.533	14.3852	-93.7627	207.768	28.7619	-92.4035	206.631	40.7382	-60.8847	233.979	4.20248	-83.7819	207.781	18.0638	-83.1583	207.195	33.6514	-55.4384	262.335	15.7348	-44.2032	250.298	23.718	-12.1057	261.84	47.5178	-32.3961	
358	2.98333	232.895	82.0795	-35.4134	231.455	92.8448	-59.5816	239.65	102.771	-81.8167	245.211	111.547	-99.8089	277.57	61.1204	-90.3245	287.708	53.4812	-110.229	301.443	46.4729	-132.898	255.315	40.9085	-100.915	224.168	37.1423	-112.389	205.765	48.847	-81.6703	245.352	23.6798	-94.3199	211.924	29.2796	-93.1792	208.935	40.9542	-61.8289	239.26	4.17805	-84.3002	210.88	19.2869	-82.4742	212.704	34.7276	-53.433	266.411	20.968	-43.6708	251.003	25.9561	-12.2991	259.526	56.9024	-29.8284	
359	2.99167	227.325	83.817	-31.5053	228.521	91.8273	-58.475	233.556	107.989	-78.3352	239.838	118.509	-97.891	277.612	69.0645	-87.2792	291.996	66.519	-112.455	303.541	55.53	-128.349	257.091	43.2464	-99.6968	228.097	40.5043	-112.353	205.84	51.055	-82.2557	246.615	25.6119	-96.1273	214.918	30.4813	-94.2211	209.243	43.3366	-64.8868	241.788	13.533	-86.0593	217.032	21.7807	-84.163	210.954	32.825	-52.348	264.793	28.8081	-39.7364	255.217	30.9039	-12.2649	258.986	61.1562	-28.6363	
